<svg xmlns="http://www.w3.org/2000/svg" viewBox="0 0 900 900">
  <defs>
    <style>
      .cls-1, .cls-10, .cls-11, .cls-2, .cls-3, .cls-4, .cls-5, .cls-7 {
        fill: none;
        stroke-miterlimit: 10;
      }
  
      .cls-1 {
        stroke: #999;
      }

      .cls-2 {
        stroke: #8cc63f;
      }

      .cls-2, .cls-3, .cls-4, .cls-5 {
        stroke-width: 2px;
      }

      .cls-3 {
        stroke: #3fa9f5;
      }

      .cls-4 {
        stroke: #662d91;
      }

      .cls-5 {
        stroke: #29abe2;
      }

      .cls-6 {
        fill: #93278f;
      }

      .cls-7 {
        stroke: #663695;
      }

      .cls-10, .cls-11, .cls-7 {
        stroke-width: 3px;
      }

      .cls-8 {
        fill: #29abe2;
      }

      .cls-9 {
        fill: #662d91;
      }

      .cls-10 {
        stroke: #93278f;
      }

      .cls-11 {
        stroke: #a96ad9;
      }

      .cls-12 {
        fill: #999;
      }

      .cls-13 {
        fill: #a96ad9;
      }

      * {
    animation-duration: 30s;
    animation-timing-function: cubic-bezier(0.645, 0.045, 0.355, 1);
    animation-iteration-count: infinite;
    animation-fill-mode: both;
  stroke-dasharray: 2000;
    }


  #circle-ml { animation-name:circle-m; }
  #circle-mr { animation-name:circle-m; animation-delay:0.5s; }
  #citcle-tr { animation-name:circle-t; animation-delay:0.5s }
  #citcle-tr-2 { animation-name:circle-top; }
  #circle-tl { animation-name:circle-t; }
  #circle-bot { animation-name:circle-bot; }
  #penta-bot { animation-name:hor; }
  #vert-c { animation-name:vert-c; }
  #vert-l { animation-name:verts; animation-delay:0.5s }
  #vert-r { animation-name:verts; }
  #internal { animation-name:circum; }
  #external { animation-name:circum; animation-delay:0.5s}
  #star { animation-name:star; }
  #R { animation-name:R; animation-delay:0.5s }
  #r-2 { animation-name:R; }
  #penta-dots {  }
   #dot-top { animation-name:dot-top; }
   #dot-mr { animation-name:dot-m; animation-delay:0.5s }
   #dot-ml { animation-name:dot-m; }
   #dot-bl { animation-name:start-point }
   #dot-br { animation-name:dot-br; }
  #center { animation-name:center; }
  #inner-penta-dots {  }
   #in-tr { animation-name:inner-dots; }
   #in-tl { animation-name:inner-dots; animation-delay:0.2s}
   #in-ml { animation-name:inner-dots; animation-delay:0.4s}
   #in-mr { animation-name:inner-dots; animation-delay:0.6s}
   #in-bot { animation-name:inner-dots; animation-delay:0.8s}
  #pentagon { animation-name:pentagon; }
  #pentagon-big { animation-name:pentagon-big; }
#pentagon-small { animation-name:pentagon-small;  }
#to-center-lines {animation-name:to-center;}
  #grey-dots {  }
   #vert-c-dot { animation-name:vert-c-dot; }
   #vert-l-dot { animation-name:vert-dots; animation-delay:0.5s }
   #vert-r-dot { animation-name:vert-dots; animation-delay:0.5s }
   #cross { animation-name:vert-dots; }
   #vert-c-dot-bot { animation-name:vert-c-dot-bot; }
  #big-penta-dots {  }
   #big-ml { animation-name:big-dots; }
   #big-mr { animation-name:big-dots; animation-delay:0.2s }
   #big-tl { animation-name:big-dots; animation-delay:0.4s }
   #big-tr { animation-name:big-dots; animation-delay:0.6s }

@keyframes start-point {
    0% { opacity: 0; }
    5% { opacity: 1;}
    80% { opacity: 1 }
    90% { opacity: 0; }
    100% { opacity: 0; }
}

@keyframes dot-br {
    0% { opacity: 0; }
    2% { opacity: 0; }
    6% { opacity: 1;}
    80% { opacity: 1; }
    90% { opacity: 0; }
    100% { opacity: 0; }
}

@keyframes pre {
    0% { opacity: 0 }
    5% { opacity: 0.1;}
    95% { opacity: 0.1 }
    100% { opacity: 0 }
}

@keyframes hor {
    0% { stroke-dashoffset: 2000; opacity: 1  }
    2% { stroke-dashoffset: 2000; }
    10% { stroke-dashoffset: 0;  }
    40% { opacity: 1; }
    50% { opacity: 0; }
    100% { opacity: 0; }
}

@keyframes circle-m {
    0% { stroke-dashoffset: 2000; opacity: 1  }
    5% { stroke-dashoffset: 2000; }
    10% { stroke-dashoffset: 0;  }
    50% { opacity: 1; }
    60% { opacity: 0; }
    100% { opacity: 0; }
}

@keyframes vert-c-dot {
    0% { opacity: 0 }
    10% { opacity: 0 }
    15% { opacity: 1;}
    35% { opacity: 1 }
    42% { opacity: 0 }
    100% { opacity: 0 }
}

@keyframes vert-c-dot-bot {
    0% { opacity: 0 }
    10% { opacity: 0 }
    15% { opacity: 1;}
    50% { opacity: 1 }
    60% { opacity: 0 }
    100% { opacity: 0 }
}

@keyframes vert-c {
    0% { stroke-dashoffset: 2000; opacity: 1  }
    10% { stroke-dashoffset: 2000; }
    15% { stroke-dashoffset: 0;  }
    35% { opacity: 1; }
    42% { opacity: 0; }
    100% { opacity: 0; }
}

@keyframes circle-bot {
    0% { stroke-dashoffset: 2000; opacity: 1  }
    15% { stroke-dashoffset: 2000; }
    20% { stroke-dashoffset: 0;  }
    37% { opacity: 1; }
    42% { opacity: 0; }
    100% { opacity: 0; }
}

@keyframes vert-dots {
    0% { opacity: 0 }
    17% { opacity: 0 }
    22% { opacity: 1;}
    37% { opacity: 1 }
    42% { opacity: 0 }
    100% { opacity: 0 }
}

@keyframes verts {
    0% { stroke-dashoffset: 2000; opacity: 1  }
    22% { stroke-dashoffset: 2000; }
    27% { stroke-dashoffset: 0;  }
    32% { opacity: 1; }
    42% { opacity: 0; }
    100% { opacity: 0; }
}

@keyframes dot-m {
    0% { opacity: 0 }
    23% { opacity: 0 }
    28% { opacity: 1}
    80% { opacity: 1 }
    90% { opacity: 0 }
    100% { opacity: 0 }
}

@keyframes circle-t {
    0% { stroke-dashoffset: 2000; opacity: 1  }
    28% { stroke-dashoffset: 2000; }
    33% { stroke-dashoffset: 0;  }
    50% { opacity: 1; }
    60% { opacity: 0; }
    100% { opacity: 0; }
}

@keyframes circle-top {
    0% { stroke-dashoffset: 2000; opacity: 1  }
    33% { stroke-dashoffset: 2000; }
    38% { stroke-dashoffset: 0;  }
    50% { opacity: 1; }
    60% { opacity: 0; }
    100% { opacity: 0; }
}

@keyframes dot-top {
    0% { opacity: 0 }
    30% { opacity: 0 }
    35% { opacity: 1}
    80% { opacity: 1 }
    90% { opacity: 0 }
    100% { opacity: 0 }
}

@keyframes pentagon {
    0% { opacity: 0  }
    42% { opacity: 0 }
    50% { opacity: 1  }
    90% { opacity: 1; }
    100% { opacity: 0; }
}

@keyframes big-dots {
    0% { opacity: 0 }
    35% { opacity: 0 }
    40% { opacity: 1}
    50% { opacity: 1 }
    60% { opacity: 0 }
    100% { opacity: 0 }
}

@keyframes inner-dots {
    0% { opacity: 0  }
    37% { opacity: 0 }
    42% { opacity: 1  }
    60% { opacity: 1; }
    70% { opacity: 0; }
    100% { opacity: 0; }
}

@keyframes pentagon-big {
    0% { opacity: 0  }
    47% { opacity: 0 }
    52% { opacity: 1  }
    55% { opacity: 1; }
    60% { opacity: 0; }
    100% { opacity: 0; }
}

@keyframes pentagon-small {
    0% { opacity: 0  }
    50% { opacity: 0 }
    55% { opacity: 1  }
    60% { opacity: 0; }
    100% { opacity: 0; }
}

@keyframes to-center {
    0% { stroke-dashoffset: 2000; opacity: 1  }
    65% { stroke-dashoffset: 2000; }
    70% { stroke-dashoffset: 0;  }
    65% { opacity: 1; }
    75% { opacity: 0; }
    100% { opacity: 0; }
}

@keyframes star {
    0% { stroke-dashoffset: 2000; opacity: 1  }
    50% { stroke-dashoffset: 2000; }
    60% { stroke-dashoffset: 0;  }
    65% { opacity: 1; }
    70% { opacity: 0; }
    100% { opacity: 0; }
}

@keyframes center {
    0% { opacity: 0  }
    65% { opacity: 0 }
    75% { opacity: 1  }
    85% { opacity: 1; }
    95% { opacity: 0; }
    100% { opacity: 0; }
}

@keyframes circum {
    0% { stroke-dashoffset: 2000; opacity: 1  }
    75% { stroke-dashoffset: 2000; }
    80% { stroke-dashoffset: 0;  }
    82% { opacity: 1; }
    87% { opacity: 0; }
    100% { opacity: 0; }
}

@keyframes R {
    0% { stroke-dashoffset: 2000; opacity: 1  }
    72% { stroke-dashoffset: 2000; }
    77% { stroke-dashoffset: 0;  }
    82% { opacity: 1; }
    87% { opacity: 0; }
    100% { opacity: 0; }
}

    </style>
  </defs>
  <title>Pentagon</title>
  <g id="_09-Pentagon" data-name="09-Pentagon">
    <path id="circle-ml" class="cls-1" d="M549.41,516.6c0,110.46-89.32,200-199.5,200s-199.5-89.54-199.5-200,89.32-200,199.5-200,199.5,89.54,199.5,200"/>
    <path id="circle-mr" class="cls-1" d="M349.46,516.6c0-110.46,89.54-200,200-200s200,89.54,200,200-89.54,200-200,200-200-89.54-200-200"/>
    <path id="citcle-tr" class="cls-1" d="M549.46,516.62A199.58,199.58,0,0,1,411.63,326.84c0-110.18,89.32-199.49,199.49-199.49s199.49,89.32,199.49,199.49S721.3,526.33,611.12,526.33a199.34,199.34,0,0,1-61.66-9.71"/>
    <path id="citcle-tr-2" data-name="citcle-tr" class="cls-1" d="M288.3,327a198.59,198.59,0,0,1-38.21-117.43C250.09,99.36,339.41,10,449.59,10S649.08,99.36,649.08,209.54,559.76,409,449.59,409A199.22,199.22,0,0,1,288.3,327"/>
    <path id="circle-tl" class="cls-1" d="M350.34,517.12A199.83,199.83,0,0,1,288.17,527c-110.46,0-200-89.54-200-200s89.54-200,200-200,200,89.54,200,200A200.09,200.09,0,0,1,350.34,517.12"/>
    <path id="circle-bot" class="cls-1" d="M349.76,516.62a199.08,199.08,0,0,1,99.92-26.71c110.46,0,200,89.54,200,200s-89.54,200-200,200-200-89.54-200-200A199.92,199.92,0,0,1,349.76,516.62"/>
    <line id="penta-bot" class="cls-1" x1="349.81" y1="516.55" x2="549.46" y2="516.6"/>
    <line id="vert-c" class="cls-1" x1="449.68" y1="343.27" x2="449.68" y2="689.91"/>
    <line id="vert-l" class="cls-1" x1="249.62" y1="689.53" x2="611.12" y2="326.84"/>
    <line id="vert-r" class="cls-1" x1="650" y1="689.8" x2="288.26" y2="326.83"/>
    <path id="internal" class="cls-2" d="M449.63,516.69A137.33,137.33,0,1,1,587,379.36,137.33,137.33,0,0,1,449.63,516.69"/>
    <path id="external" class="cls-3" d="M449.63,209.54A169.82,169.82,0,1,1,279.81,379.36,169.82,169.82,0,0,1,449.63,209.54"/>
    <g id="to-center-lines">
      <line id="to-center-r" class="cls-1" x1="388.16" y1="399.26" x2="611.12" y2="326.83"/>
      <line id="to-center-br" class="cls-1" x1="411.63" y1="326.84" x2="549.41" y2="516.6"/>
      <line id="to-center-bl" class="cls-1" x1="488.2" y1="326.62" x2="349.91" y2="516.6"/>
      <line id="to-center-t" class="cls-1" x1="449.96" y1="444.16" x2="449.59" y2="209.54"/>
      <line id="to-center-l" class="cls-1" x1="511.84" y1="399.21" x2="288.3" y2="326.97"/>
    </g>
    <polyline id="star" class="cls-4" points="449.69 209.54 549.46 516.6 288.17 326.97 611.12 326.97 349.81 516.55 449.69 209.54"/>
    <line id="R" class="cls-5" x1="449.69" y1="378.97" x2="449.69" y2="209.54"/>
    <line id="r-2" data-name="r" class="cls-2" x1="449.68" y1="379.03" x2="449.68" y2="516.75"/>
    <g id="penta-dots">
      <circle id="dot-top" class="cls-6" cx="449.69" cy="209.54" r="5"/>
      <circle id="dot-mr" class="cls-6" cx="611.12" cy="326.84" r="5"/>
      <circle id="dot-ml" class="cls-6" cx="288.17" cy="326.97" r="5"/>
      <circle id="dot-bl" class="cls-6" cx="349.81" cy="516.55" r="5"/>
      <circle id="dot-br" class="cls-6" cx="549.46" cy="516.6" r="5"/>
    </g>
    <polyline id="pentagon-small" class="cls-7" points="449.96 444.16 511.84 399.21 488.2 326.62 411.76 326.6 388.16 399.26 449.96 444.16"/>
    <circle id="center" class="cls-8" cx="449.63" cy="378.97" r="5.02"/>
    <g id="inner-penta-dots">
      <circle id="in-ml" class="cls-9" cx="388.17" cy="399.31" r="5.02"/>
      <circle id="in-mr" class="cls-9" cx="511.34" cy="399.24" r="5.02"/>
      <circle id="in-tr" class="cls-9" cx="487.75" cy="326.97" r="5.02"/>
      <circle id="in-bot" class="cls-9" cx="450" cy="443.82" r="5.02"/>
      <circle id="in-tl" class="cls-9" cx="411.5" cy="326.97" r="5.02"/>
    </g>
    <polyline id="pentagon" class="cls-10" points="449.69 209.54 288.05 326.94 349.81 516.55 549.46 516.6 611.12 326.83 449.69 209.54"/>
    <polyline id="pentagon-big" class="cls-11" points="449.72 689.79 745.25 475.14 632.34 128.47 267.31 128.39 154.57 475.35 449.72 689.79"/>
    <g id="grey-dots">
      <circle id="vert-c-dot" class="cls-12" cx="449.42" cy="342.89" r="5"/>
      <circle id="vert-l-dot" class="cls-12" cx="249.62" cy="689.53" r="5"/>
      <circle id="vert-r-dot" class="cls-12" cx="649.77" cy="689.37" r="5"/>
      <circle id="cross" class="cls-12" cx="450.03" cy="489.53" r="5"/>
      <circle id="vert-c-dot-bot" class="cls-12" cx="450.03" cy="689.37" r="5"/>
    </g>
    <g id="big-penta-dots">
      <circle id="big-mr" class="cls-13" cx="745.86" cy="475.04" r="5"/>
      <circle id="big-tr" class="cls-13" cx="632.37" cy="128.29" r="5"/>
      <circle id="big-tl" class="cls-13" cx="268.23" cy="128.29" r="5"/>
      <circle id="big-ml" class="cls-13" cx="154.19" cy="475.04" r="5"/>
    </g>
  </g>
</svg>
