<svg xmlns="http://www.w3.org/2000/svg" viewBox="0 0 900 900">
  <defs>
    <style>

      * {
    animation-duration: 75s;
    animation-timing-function: cubic-bezier(0.645, 0.045, 0.355, 1);
    animation-iteration-count: infinite;
    animation-fill-mode: both;
  stroke-dasharray: 2000;
    }

  #Metatron {  }
    #cir-c { animation-name:inner-center; }
 #inners circle { animation-name:inners; }
   #outers circle { animation-name:outers; }
   #lines {  }
    #lines .cls-2 { animation-name:lines }
  #small {  }
   #Tetrahedron { animation-name:tetrahedron}
    #Tetrahedron polygon { animation-name:tetrahedron-sides; fill:#ff0000; }
#Tetrahedron polygon:nth-child(2) {
  animation-delay:0.3s;
}
#Tetrahedron polygon:nth-child(3) {
  animation-delay:0.6s;
}
   #Octahedron { animation-name:octahedron }
    #Octahedron .cls-13 { animation-name:octahedron-sides; fill:#2AB098; }
#Octahedron .cls-13:nth-child(2) {
  animation-delay:0.4s;
}
#Octahedron .cls-13:nth-child(3) {
  animation-delay:0.8s;
}
#Octahedron .cls-13:nth-child(4) {
  animation-delay:1.2s;
}
#Octahedron .cls-13:nth-child(5) {
  animation-delay:1.4s;
}

    #Octahedron #back {  }
     #Octahedron #back polygon.cls-5 {  }
   #Cube { animation-name:cube }
    #Cube .cls-8 { animation-name:cube-sides; fill:#F6E71B; }
#Cube .cls-8:nth-child(2) {
  animation-delay:0.5s;
}
#Cube .cls-8:nth-child(3) {
  animation-delay:1s;
}
#Cube .cls-8:nth-child(4) {
  animation-delay:1.5s;
}
#Cube .cls-8:nth-child(5) {
  animation-delay:2s;
}
   #Icosahedron  { animation-name:ico }
    #Icosahedron .cls-10 { animation-name:ico-sides; fill:#35A8E0; }
#Icosahedron .cls-10:nth-child(2) {
  animation-delay:0.2s;
}
#Icosahedron .cls-10:nth-child(3) {
  animation-delay:0.4s;
}
#Icosahedron .cls-10:nth-child(4) {
  animation-delay:0.8s;
}
#Icosahedron .cls-10:nth-child(5) {
  animation-delay:1.2s;
}
#Icosahedron .cls-10:nth-child(6) {
  animation-delay:1.4s;
}
#Icosahedron .cls-10:nth-child(7) {
  animation-delay:1.6s;
}
#Icosahedron .cls-10:nth-child(8) {
  animation-delay:1.8s;
}
#Icosahedron .cls-10:nth-child(9) {
  animation-delay:2s;
}
#Icosahedron .cls-10:nth-child(10) {
  animation-delay:2.2s;
}
   #Dodecahedron { animation-name:dod }
    #Dodecahedron .cls-11 { animation-name:dod-sides; fill:#941B80; }
#Dodecahedron .cls-11:nth-child(2) {
  animation-delay:0.2s;
}
#Dodecahedron .cls-11:nth-child(3) {
  animation-delay:0.4s;
}
#Dodecahedron .cls-11:nth-child(4) {
  animation-delay:0.6s;
}
#Dodecahedron .cls-11:nth-child(5) {
  animation-delay:0.8s;
}

    #Dodecahedron polygon.cls-11 {  }
  #big {  }
   #octa-b { animation-name:octa-b;  }
    #octa-b polygon {  }
   #ico-b { animation-name:ico-b;  }
    #ico-b polygon {  }
   #tetra-b { animation-name:tetra-b }
    #tetra-b polygon {  }
    #life path { animation-name:life; }
#cir-center {animation-name: cir-center;}
  #cir-tc { animation-delay:0.2s}
   #cir-tr { animation-delay:0.4s; }
   #cir-br { animation-delay:0.8s; }
   #cir-bc { animation-delay:1s; }
   #cir-bl { animation-delay:1.2s; }
   #cir-tl { animation-delay:1.4s; }
   #start-lines { }
    #start-1 { animation-name:start-1 }
    #start-2 { animation-name:start-2  }
    #bl-tr, #tl-br, #vert { animation-name:vert  }
  #bl-tr-l, #tl-br-l, #vert-l { animation-name:vert-l  }
   #centers-big { animation-name:centers-big }
    #bd { animation-name:bd; }
    #center { animation-name:center}
    #half { animation-name:half }
    #cen-out { animation-name:cen-out }
    #cen-in circle { animation-name:cen-in }



@keyframes center {
    from, 85%, to {opacity:0}
  5%, 80% {opacity:1}
}

@keyframes start-2 {
  from,3% { stroke-dashoffset: 2000; }
  6% { stroke-dashoffset: 0;
    opacity:1; }
  25% { opacity:1; }
  30%,to { opacity:0; }
}

@keyframes bd {
    from, 2%,80%, to {opacity:0}
  5%, 75% {opacity:1}
}

@keyframes cir-center {
  from, 4% { stroke-dashoffset: 2000; }
  8% { stroke-dashoffset: 0;
    opacity:1; }
  20% { opacity:1; }
  25%,to { opacity:0; }
}

@keyframes life  {
  from,5% { stroke-dashoffset: 2000; }
  15% { stroke-dashoffset: 0;
    opacity:1; }
  15% { opacity:1; }
  25%,to { opacity:0; }
}

@keyframes cen-in {
    from, 5%,80%, to {opacity:0}
  10%, 75% {opacity:1}
}

@keyframes cen-out {
    from, 12%,80%, to {opacity:0}
  17%, 75% {opacity:1}
}

@keyframes start-1 {
  from,16% { stroke-dashoffset: 2000; }
  19% { stroke-dashoffset: 0;
    opacity:1; }
  20% { opacity:1; }
  25%,to { opacity:0; }
}

@keyframes half {
      from, 16%,24%, to {opacity:0}
  18% {opacity:1}
}


@keyframes vert {
  from,12% { stroke-dashoffset: 2000; }
  17% { stroke-dashoffset: 0;
    opacity:1; }
  25% { opacity:1; }
  30%,to { opacity:0; }
}

@keyframes inner-center {
  from,17% { stroke-dashoffset: 2000; }
  21% { stroke-dashoffset: 0;
    opacity:1; }
  80% { opacity:1; }
  90%,to { opacity:0; }
}

@keyframes inners {
  from,18% { opacity:0}
  23% { opacity:1; }
  80% { opacity:1; }
  85%,to { opacity:0; }
}

@keyframes lines {
  from, 20% { stroke-dashoffset: 2000; }
  30% { stroke-dashoffset: 0;
    opacity:1; }
  60% { opacity:1; }
  70%,to { opacity:0; }
}

@keyframes tetrahedron {
  from,25%,36%, to { opacity:0}
  30%, 33% { opacity:1; }
}

@keyframes tetrahedron-sides {
  from,27%,33%,to {fill-opacity:0;}
  30% {fill-opacity:0.2}
}

@keyframes octahedron {
  from,33%,42%, to { opacity:0}
  36%, 39% { opacity:1; }
}

@keyframes octahedron-sides {
  from,32%,38%,to {fill-opacity:0;}
  35% {fill-opacity:0.2}
}

@keyframes cube {
  from,38%,51%,68%,94%, to { opacity:0}
  43%,48%,73%,89% { opacity:1; }
}

@keyframes cube-sides {
  from,40%,46%,to {fill-opacity:0;}
  43% {fill-opacity:0.2}
}

@keyframes ico {
  from,48%,59%, to { opacity:0}
  51%, 56% { opacity:1; }
}

@keyframes ico-sides {
  from,48%,56%,to {fill-opacity:0;}
  53% {fill-opacity:0.2}
}

@keyframes dod {
  from,55%,64%,67%, 92%, to { opacity:0}
  58%, 61%,72%,87% { opacity:1; }
}

@keyframes dod-sides {
  from,55%,61%,to {fill-opacity:0;}
  58% {fill-opacity:0.2}
}

@keyframes vert-l {
  from,60% { stroke-dashoffset: 2000; }
  63% { stroke-dashoffset: 0;
    opacity:1; }
  66%,to { opacity:0; }
}

@keyframes centers-big {
  from,62%,90%,to {opacity:0;}
  65%,85% {opacity:1}
}

@keyframes outers {
  from,64%,85%,to {opacity:0;}
  67%, 80% {opacity:1}
}

@keyframes tetra-b {
  from,65%,90%, to { opacity:0}
  70%, 85% { opacity:1; }
}

@keyframes octa-b {
  from,70%,96%,to { opacity:0}
  74%, 91% { opacity:1; }
}

@keyframes ico-b {
  from,72%, to { opacity:0}
  76%, 93% { opacity:1; }
}


      .cls-1, .cls-10, .cls-11, .cls-12, .cls-13, .cls-14, .cls-2, .cls-4, .cls-5, .cls-6, .cls-7, .cls-8, .cls-9 {
        fill: none;
      }

      .cls-1 {
        stroke: #c6c6c5;
      }

      .cls-1, .cls-2, .cls-4, .cls-5 {
        stroke-miterlimit: 10;
      }

      .cls-2 {
        stroke: #b3b3b3;
      }

      .cls-3 {
        fill: #999;
      }

      .cls-4 {
        stroke: #999;
      }

      .cls-5 {
        stroke: gray;
      }

      .cls-6 {
        stroke: #e20613;
      }

      .cls-10, .cls-11, .cls-12, .cls-13, .cls-14, .cls-6, .cls-7, .cls-8, .cls-9 {
        stroke-linejoin: round;
      }

      .cls-10, .cls-11, .cls-13, .cls-6, .cls-8 {
        stroke-width: 2px;
      }

      .cls-7, .cls-8 {
        stroke: #f6e71b;
      }

      .cls-10, .cls-9 {
        stroke: #35a8e0;
      }

      .cls-11, .cls-12 {
        stroke: #941b80;
      }

      .cls-13, .cls-14 {
        stroke: #2ab098;
      }
    </style>
  </defs>
  <title>Metatron</title>
  <g id="_11-Metatron" data-name="11-Metatron">
    <g id="Metatron">
      <g id="inners">
        <circle class="cls-1" cx="450" cy="257.74" r="48.06"/>
        <circle class="cls-1" cx="450" cy="353.87" r="48.06"/>
        <circle class="cls-1" cx="450" cy="546.13" r="48.06"/>
        <circle class="cls-1" cx="450" cy="642.26" r="48.06"/>
        <circle class="cls-1" cx="283.5" cy="353.87" r="48.06" transform="matrix(0.5, -0.87, 0.87, 0.5, -164.71, 422.45)"/>
        <circle class="cls-1" cx="366.75" cy="401.94" r="48.06" transform="matrix(0.5, -0.87, 0.87, 0.5, -164.71, 518.58)"/>
        <circle class="cls-1" cx="533.25" cy="498.06" r="48.06" transform="matrix(0.5, -0.87, 0.87, 0.5, -164.71, 710.84)"/>
        <circle class="cls-1" cx="616.5" cy="546.13" r="48.06" transform="matrix(0.5, -0.87, 0.87, 0.5, -164.71, 806.97)"/>
        <circle class="cls-1" cx="283.5" cy="546.13" r="48.07" transform="translate(-235.08 214.92) rotate(-30)"/>
        <circle class="cls-1" cx="366.75" cy="498.06" r="48.07" transform="translate(-199.9 250.1) rotate(-30)"/>
        <circle class="cls-1" cx="533.25" cy="401.94" r="48.07" transform="translate(-129.53 320.47) rotate(-30)"/>
        <circle class="cls-1" cx="616.5" cy="353.87" r="48.07" transform="translate(-94.34 355.66) rotate(-30)"/>
      </g>
      <g id="outers">
        <circle class="cls-1" cx="450" cy="161.61" r="48.07"/>
        <circle class="cls-1" cx="450" cy="65.48" r="48.07"/>
        <circle class="cls-1" cx="450" cy="738.39" r="48.07"/>
        <circle class="cls-1" cx="450" cy="834.52" r="48.07"/>
        <circle class="cls-1" cx="200.25" cy="305.81" r="48.07" transform="matrix(0.5, -0.87, 0.87, 0.5, -164.71, 326.32)"/>
        <circle class="cls-1" cx="116.99" cy="257.74" r="48.07" transform="translate(-164.71 230.19) rotate(-60)"/>
        <circle class="cls-1" cx="699.75" cy="594.2" r="48.07" transform="translate(-164.71 903.1) rotate(-60)"/>
        <circle class="cls-1" cx="783.01" cy="642.26" r="48.07" transform="matrix(0.5, -0.87, 0.87, 0.5, -164.71, 999.23)"/>
        <circle class="cls-1" cx="200.25" cy="594.19" r="48.07" transform="translate(-270.27 179.73) rotate(-30)"/>
        <circle class="cls-1" cx="116.99" cy="642.26" r="48.07" transform="translate(-305.46 144.54) rotate(-30)"/>
        <circle class="cls-1" cx="699.75" cy="305.8" r="48.07" transform="translate(-59.15 390.85) rotate(-30)"/>
        <circle class="cls-1" cx="783.01" cy="257.74" r="48.07" transform="translate(-23.97 426.03) rotate(-30)"/>
      </g>
      <g id="lines">
        <polygon class="cls-2" points="450 257.74 283.5 353.87 283.5 546.13 450 642.26 616.5 546.13 616.5 353.87 450 257.74"/>
        <polygon class="cls-2" points="450 353.87 366.75 401.94 366.75 498.06 450 546.13 533.25 498.06 533.25 401.94 450 353.87"/>
        <polygon class="cls-2" points="450 257.74 450 450 616.5 353.87 450 257.74"/>
        <polygon class="cls-2" points="283.5 353.87 450 450 450 257.74 283.5 353.87"/>
        <polygon class="cls-2" points="283.5 546.13 450 450 283.5 353.87 283.5 546.13"/>
        <polygon class="cls-2" points="450 642.26 450 450 283.5 546.13 450 642.26"/>
        <polygon class="cls-2" points="616.5 546.13 450 450 450 642.26 616.5 546.13"/>
        <polygon class="cls-2" points="616.5 353.87 450 450 616.5 546.13 616.5 353.87"/>
        <rect class="cls-2" x="283.5" y="353.87" width="333" height="192.26"/>
        <polygon class="cls-2" points="366.75 401.94 533.25 401.96 533.25 498.06 366.75 498.06 366.75 401.94"/>
        <polygon class="cls-2" points="283.5 546.13 450 257.74 616.5 546.13 283.5 546.13"/>
        <polygon class="cls-2" points="283.5 353.87 616.5 353.87 450 642.26 366.75 498.06 283.5 353.87"/>
        <polygon class="cls-2" points="450 257.74 366.75 498.06 533.25 498.06 450 257.74"/>
        <polygon class="cls-2" points="450 642.26 366.75 401.94 533.25 401.94 450 642.26"/>
        <polygon class="cls-2" points="616.5 546.13 366.75 498.06 450 353.87 616.5 546.13"/>
        <polygon class="cls-2" points="283.5 353.87 533.25 401.94 450 546.13 283.5 353.87"/>
        <polygon class="cls-2" points="283.5 546.13 450 353.87 533.25 498.06 283.5 546.13"/>
        <polygon class="cls-2" points="616.5 353.87 366.75 401.94 450 546.13 616.5 353.87"/>
      </g>
      <circle id="cir-c" class="cls-1" cx="450" cy="450" r="48.06"/>
    </g>
    <g id="Base">
      <g id="centers-big">
        <circle id="bd4" class="cls-3" cx="700.25" cy="306.63" r="5"/>
        <circle id="bd4-2" data-name="bd4" class="cls-3" cx="783.01" cy="257.74" r="5"/>
        <circle id="bd4-3" data-name="bd4" class="cls-3" cx="450.01" cy="161.6" r="5"/>
        <circle id="bd4-4" data-name="bd4" class="cls-3" cx="117" cy="257.73" r="5"/>
        <circle id="bd4-5" data-name="bd4" class="cls-3" cx="200.26" cy="305.8" r="5"/>
        <circle id="bd4-6" data-name="bd4" class="cls-3" cx="200.25" cy="594.19" r="5"/>
        <circle id="bd4-7" data-name="bd4" class="cls-3" cx="450.01" cy="834.52" r="5"/>
        <circle id="bd4-8" data-name="bd4" class="cls-3" cx="450.01" cy="738.39" r="5"/>
        <circle id="bd4-9" data-name="bd4" class="cls-3" cx="699.97" cy="594.31" r="5"/>
        <circle id="bd4-10" data-name="bd4" class="cls-3" cx="783.02" cy="642.26" r="5"/>
        <circle id="bd4-11" data-name="bd4" class="cls-3" cx="117" cy="642.26" r="5"/>
        <circle id="bd4-12" data-name="bd4" class="cls-3" cx="450.01" cy="65.49" r="5"/>
      </g>
      <g id="centers">
        <circle id="center" class="cls-3" cx="450" cy="450" r="5"/>
        <path id="cir-center" class="cls-4" d="M450,545.65A95.65,95.65,0,1,1,545.65,450,95.65,95.65,0,0,1,450,545.65"/>
        <circle id="bd" class="cls-3" cx="450" cy="546.16" r="5"/>
        <circle id="half" class="cls-3" cx="450" cy="498.08" r="5"/>
        <g id="cen-out">
          <circle id="bd4-13" data-name="bd4" class="cls-3" cx="616.5" cy="353.87" r="5"/>
          <circle id="bd4-14" data-name="bd4" class="cls-3" cx="450" cy="257.74" r="5"/>
          <circle id="bd4-15" data-name="bd4" class="cls-3" cx="283.45" cy="353.84" r="5"/>
          <circle id="bd4-16" data-name="bd4" class="cls-3" cx="283.45" cy="546.04" r="5"/>
          <circle id="bd4-17" data-name="bd4" class="cls-3" cx="450" cy="642.26" r="5"/>
          <circle id="bd4-18" data-name="bd4" class="cls-3" cx="616.55" cy="546.04" r="5"/>
        </g>
        <g id="cen-in">
          <circle id="bd4-19" data-name="bd4" class="cls-3" cx="366.75" cy="498.08" r="5"/>
          <circle id="bd4-20" data-name="bd4" class="cls-3" cx="533.28" cy="498.08" r="5"/>
          <circle id="bd4-21" data-name="bd4" class="cls-3" cx="533.28" cy="401.92" r="5"/>
          <circle id="bd4-22" data-name="bd4" class="cls-3" cx="450" cy="353.84" r="5"/>
          <circle id="bd4-23" data-name="bd4" class="cls-3" cx="366.72" cy="401.92" r="5"/>
        </g>
      </g>
      <g id="life">
        <path id="cir-tc" class="cls-4" d="M450,450a95.65,95.65,0,1,1,95.65-95.65A95.65,95.65,0,0,1,450,450"/>
        <path id="cir-tr" class="cls-4" d="M450.12,354.14a95.68,95.68,0,1,1-.51,95.2,95.2,95.2,0,0,1,.51-95.2"/>
        <path id="cir-br" class="cls-4" d="M532.28,402.21a95.6,95.6,0,1,1-48.07,13.26,95.65,95.65,0,0,1,48.07-13.26"/>
        <path id="cir-bc" class="cls-4" d="M533.07,498.22a95.65,95.65,0,1,1-130.48-35.65,95.65,95.65,0,0,1,130.48,35.65"/>
        <path id="cir-bl" class="cls-4" d="M450,545.7l-.42.71a95.73,95.73,0,1,1,.42-.71"/>
        <path id="cir-tl" class="cls-4" d="M366.75,497.85a95.65,95.65,0,1,1,67.69-27.65,95.35,95.35,0,0,1-67.69,27.65"/>
      </g>
      <g id="start-lines">
        <line id="start-1" class="cls-5" x1="366.75" y1="498.06" x2="533.25" y2="498.06"/>
        <line id="start-2" class="cls-5" x1="450" y1="450" x2="450" y2="546.16"/>
        <line id="bl-tr" class="cls-2" x1="283.45" y1="546.04" x2="616.5" y2="353.87"/>
        <line id="tl-br" class="cls-2" x1="616.55" y1="546.04" x2="283.45" y2="353.84"/>
        <line id="bl-tr-l" class="cls-2" x1="116.83" y1="642.18" x2="783.12" y2="257.73"/>
        <line id="tl-br-l" class="cls-2" x1="783.12" y1="642.15" x2="116.88" y2="257.73"/>
        <line id="vert" class="cls-2" x1="450" y1="257.74" x2="450" y2="642.26"/>
        <line id="vert-l" class="cls-2" x1="450" y1="65.49" x2="450" y2="834.51"/>
      </g>
    </g>
    <g id="small">
      <g id="Tetrahedron">
        <polygon class="cls-6" points="450 257.9 282.15 546.04 450 449.99 450 257.9"/>
        <polygon class="cls-6" points="617.85 546.04 450 257.9 450 449.99 617.85 546.04"/>
        <polygon class="cls-6" points="282.15 546.04 450 449.99 617.85 546.04 282.15 546.04"/>
      </g>
      <g id="Cube">
        <g id="back">
          <polygon class="cls-7" points="450 641.3 615.68 545.65 450 450 284.33 545.65 450 641.3"/>
          <polygon class="cls-7" points="615.68 354.35 615.68 545.65 450 450 450 258.7 615.68 354.35"/>
          <polygon class="cls-7" points="284.33 545.65 284.33 354.35 450 258.7 450 450 284.33 545.65"/>
        </g>
        <polygon class="cls-8" points="450 258.7 284.33 354.35 450 450 615.68 354.35 450 258.7"/>
        <polygon class="cls-8" points="284.33 545.65 284.33 354.35 450 450 450 641.3 284.33 545.65"/>
        <polygon class="cls-8" points="615.68 354.35 615.68 545.65 450 641.3 450 450 615.68 354.35"/>
      </g>
      <g id="Icosahedron">
        <g id="Back-2" data-name="Back">
          <polygon class="cls-9" points="450 257.74 366.75 401.94 533.25 401.94 450 257.74"/>
          <polygon class="cls-9" points="283.5 353.87 450 257.74 366.75 401.94 283.5 353.87"/>
          <polygon class="cls-9" points="616.5 353.87 533.25 401.94 450 257.74 616.5 353.87"/>
          <polygon class="cls-9" points="616.5 543.67 616.5 353.87 533.25 401.94 616.5 543.67"/>
          <polygon class="cls-9" points="450 546.13 366.75 401.94 533.25 401.94 450 546.13"/>
          <polygon class="cls-9" points="283.5 546.13 283.5 353.87 366.75 401.94 283.5 546.13"/>
          <polygon class="cls-9" points="450 546.13 283.5 546.13 366.75 401.94 450 546.13"/>
          <polygon class="cls-9" points="616.5 546.13 533.25 401.94 450 546.13 616.5 546.13"/>
          <polygon class="cls-9" points="450 642.26 450 546.13 616.5 546.13 450 642.26"/>
          <polygon class="cls-9" points="283.5 546.13 450 546.13 450 642.26 283.5 546.13"/>
        </g>
        <g id="Front">
          <polygon class="cls-10" points="450 642.26 533.25 498.06 366.75 498.06 450 642.26"/>
          <polygon class="cls-10" points="616.5 546.13 450 642.26 533.25 498.06 616.5 546.13"/>
          <polygon class="cls-10" points="283.5 546.13 366.75 498.06 450 642.26 283.5 546.13"/>
          <polygon class="cls-10" points="283.5 356.33 283.5 546.13 366.75 498.06 283.5 356.33"/>
          <polygon class="cls-10" points="450 353.87 533.25 498.06 366.75 498.06 450 353.87"/>
          <polygon class="cls-10" points="616.5 353.87 616.5 546.13 533.25 498.06 616.5 353.87"/>
          <polygon class="cls-10" points="450 353.87 616.5 353.87 533.25 498.06 450 353.87"/>
          <polygon class="cls-10" points="283.5 353.87 366.75 498.06 450 353.87 283.5 353.87"/>
          <polygon class="cls-10" points="450 257.74 450 353.87 283.5 353.87 450 257.74"/>
          <polygon class="cls-10" points="616.5 353.87 450 353.87 450 257.74 616.5 353.87"/>
        </g>
      </g>
      <g id="Dodecahedron">
        <polygon class="cls-11" points="450 450 450 386.23 516.27 373.48 549.41 430.87 505.23 481.88 450 450"/>
        <polygon class="cls-11" points="383.74 373.48 450 386.23 450 450 394.78 481.88 350.6 430.87 383.74 373.48"/>
        <polygon class="cls-11" points="416.87 545.65 394.78 481.88 450 450 505.23 481.88 483.14 545.65 416.87 545.65"/>
        <polygon class="cls-11" points="350.6 469.13 350.6 430.87 394.78 481.88 416.87 545.65 383.74 526.52 350.6 469.13"/>
        <polygon class="cls-11" points="383.74 373.48 416.87 354.35 483.14 354.35 516.27 373.48 450 386.23 383.74 373.48"/>
        <polygon class="cls-11" points="549.41 430.87 505.23 481.88 483.14 545.65 516.27 526.52 549.41 469.13 549.41 430.87"/>
        <g id="dodeca-back">
          <polygon class="cls-12" points="483.14 354.35 505.23 418.12 450 450 394.78 418.12 416.87 354.35 483.14 354.35"/>
          <polygon class="cls-12" points="505.23 418.12 549.41 469.13 516.27 526.52 450 513.76 450 450 505.23 418.12"/>
          <polygon class="cls-12" points="383.74 526.52 450 513.76 450 450 394.78 418.12 350.6 469.13 383.74 526.52"/>
        </g>
      </g>
      <g id="Octahedron">
        <polygon class="cls-13" points="283.92 354.58 616.09 354.58 450 642.26 283.92 354.58"/>
        <polygon class="cls-13" points="450 258.69 283.92 354.58 616.09 354.58 450 258.69"/>
        <polygon class="cls-13" points="616.09 546.37 616.09 354.58 450 642.26 616.09 546.37"/>
        <polygon class="cls-13" points="283.92 546.37 283.92 354.58 450 642.26 283.92 546.37"/>
        <g id="octa-back">
          <polygon class="cls-14" points="616.09 546.37 283.92 546.37 450 258.69 616.09 546.37"/>
          <polygon class="cls-14" points="450 642.26 616.09 546.37 283.92 546.37 450 642.26"/>
          <polygon class="cls-14" points="283.92 354.58 283.92 546.37 450 258.69 283.92 354.58"/>
        </g>
      </g>
    </g>
    <g id="big">
      <g id="octa-b">
        <polygon class="cls-13" points="200.25 305.8 699.75 305.8 450 738.39 200.25 305.8"/>
        <polygon class="cls-13" points="450 161.61 200.25 305.8 699.75 305.8 450 161.61"/>
        <polygon class="cls-13" points="699.75 594.2 699.75 305.8 450 738.39 699.75 594.2"/>
        <polygon class="cls-13" points="200.25 594.2 200.25 305.8 450 738.39 200.25 594.2"/>
        <g>
          <polygon class="cls-14" points="699.75 594.2 200.25 594.2 450 161.61 699.75 594.2"/>
          <polygon class="cls-14" points="450 738.39 699.75 594.2 200.25 594.2 450 738.39"/>
          <polygon class="cls-14" points="200.25 305.8 200.25 594.2 450 161.61 200.25 305.8"/>
        </g>
      </g>
      <g id="ico-b">
        <polygon class="cls-10" points="450 65.48 116.99 257.74 450 209.68 450 65.48"/>
        <polygon class="cls-10" points="783.01 257.74 450 65.48 450 209.68 783.01 257.74"/>
        <polygon class="cls-10" points="241.87 570.16 450 209.68 658.13 570.16 241.87 570.16"/>
        <polygon class="cls-10" points="116.99 257.74 241.87 570.16 450 209.68 116.99 257.74"/>
        <polygon class="cls-10" points="116.99 642.26 116.99 257.74 241.87 570.16 116.99 642.26"/>
        <polygon class="cls-10" points="658.13 570.16 450 834.52 241.87 570.16 658.13 570.16"/>
        <polygon class="cls-10" points="116.99 642.26 450 834.52 241.87 570.16 116.99 642.26"/>
        <polygon class="cls-10" points="658.13 570.16 783.01 642.26 450 834.52 658.13 570.16"/>
        <polygon class="cls-10" points="783.01 257.74 658.13 570.16 783.01 642.26 783.01 257.74"/>
        <g>
          <polygon class="cls-9" points="450 834.52 783.01 642.26 450 690.32 450 834.52"/>
          <polygon class="cls-9" points="116.99 642.26 450 834.52 450 690.32 116.99 642.26"/>
          <polygon class="cls-9" points="658.13 329.84 450 690.32 241.87 329.84 658.13 329.84"/>
          <polygon class="cls-9" points="783.01 257.74 783.01 642.26 658.13 329.84 783.01 257.74"/>
          <polygon class="cls-9" points="783.01 257.74 450 65.48 658.13 329.84 783.01 257.74"/>
          <polygon class="cls-9" points="241.87 329.84 116.99 257.74 450 65.48 241.87 329.84"/>
          <polygon class="cls-9" points="116.99 642.26 241.87 329.84 116.99 257.74 116.99 642.26"/>
        </g>
      </g>
      <g id="tetra-b">
        <polygon class="cls-6" points="450 401.95 408.01 474.03 450 450 450 401.95"/>
        <polygon class="cls-6" points="491.99 474.03 450 401.95 450 450 491.99 474.03"/>
        <polygon class="cls-6" points="408.01 474.03 450 450 491.99 474.03 408.01 474.03"/>
      </g>
    </g>
  </g>
</svg>
